<mxfile host="app.diagrams.net" modified="2022-08-17T13:22:39.194Z" agent="5.0 (X11; Linux x86_64) AppleWebKit/537.36 (KHTML, like Gecko) Chrome/104.0.0.0 Safari/537.36" etag="ZNCo-cxXh6wZcsijqSrp" version="20.2.4" type="github">
  <diagram id="Kvy3lxHD1aulReiJXrbM" name="PÃ¡gina-1">
    <mxGraphModel dx="1278" dy="578" grid="1" gridSize="10" guides="1" tooltips="1" connect="1" arrows="1" fold="1" page="1" pageScale="1" pageWidth="827" pageHeight="1169" math="0" shadow="0">
      <root>
        <mxCell id="0" />
        <mxCell id="1" parent="0" />
        <mxCell id="jYL1rl4MQ4nfsiTj1yZc-1" value="" style="rounded=0;whiteSpace=wrap;html=1;" vertex="1" parent="1">
          <mxGeometry x="400" y="260" width="120" height="60" as="geometry" />
        </mxCell>
      </root>
    </mxGraphModel>
  </diagram>
</mxfile>
